<svg width="50" height="50" viewBox="0 0 50 50" fill="none" xmlns="http://www.w3.org/2000/svg">
<path d="M13.5417 12.5H30.2083C31.8659 12.5 33.4556 13.1585 34.6277 14.3306C35.7998 15.5027 36.4583 17.0924 36.4583 18.75C36.4583 20.4076 35.7998 21.9973 34.6277 23.1694C33.4556 24.3415 31.8659 25 30.2083 25M30.2083 25C31.8659 25 33.4556 25.6585 34.6277 26.8306C35.7998 28.0027 36.4583 29.5924 36.4583 31.25C36.4583 32.9076 35.7998 34.4973 34.6277 35.6694C33.4556 36.8415 31.8659 37.5 30.2083 37.5H13.5417M30.2083 25H17.7083M17.7083 12.5V37.5M19.7917 6.25V12.5M28.125 6.25V12.5M19.7917 37.5V43.75M28.125 37.5V43.75" stroke="#F7931A" stroke-width="2" stroke-linecap="round" stroke-linejoin="round"/>
</svg>
