<svg width="20" height="16" viewBox="0 0 20 16" fill="none" xmlns="http://www.w3.org/2000/svg">
<path d="M2 15.4014C1.45 15.4014 0.975 15.2169 0.575 14.8479C0.191667 14.4628 0 14.0056 0 13.4762V1.92517C0 1.39575 0.191667 0.946542 0.575 0.57755C0.975 0.192517 1.45 0 2 0H18C18.55 0 19.0167 0.192517 19.4 0.57755C19.8 0.946542 20 1.39575 20 1.92517V13.4762C20 14.0056 19.8 14.4628 19.4 14.8479C19.0167 15.2169 18.55 15.4014 18 15.4014H2ZM10 8.66327L18 3.85034V1.92517L10 6.7381L2 1.92517V3.85034L10 8.66327Z" fill="white"/>
</svg>
