<svg width="16" height="20" viewBox="0 0 16 20" fill="none" xmlns="http://www.w3.org/2000/svg">
<path d="M8 9.62585C8.55 9.62585 9.02083 9.43735 9.4125 9.06033C9.80417 8.68332 10 8.2301 10 7.70068C10 7.17126 9.80417 6.71804 9.4125 6.34103C9.02083 5.96402 8.55 5.77551 8 5.77551C7.45 5.77551 6.97917 5.96402 6.5875 6.34103C6.19583 6.71804 6 7.17126 6 7.70068C6 8.2301 6.19583 8.68332 6.5875 9.06033C6.97917 9.43735 7.45 9.62585 8 9.62585ZM8 19.2517C5.31667 17.0538 3.3125 15.0123 1.9875 13.1273C0.6625 11.2422 0 9.49751 0 7.8932C0 5.48673 0.804167 3.56959 2.4125 2.14175C4.02083 0.713917 5.88333 0 8 0C10.1167 0 11.9792 0.713917 13.5875 2.14175C15.1958 3.56959 16 5.48673 16 7.8932C16 9.49751 15.3375 11.2422 14.0125 13.1273C12.6875 15.0123 10.6833 17.0538 8 19.2517Z" fill="#FEF7FF"/>
</svg>
