<svg width="18" height="18" viewBox="0 0 18 18" fill="none" xmlns="http://www.w3.org/2000/svg">
<path d="M17.533 15.1513C17.533 15.1513 16.3743 16.2468 16.0904 16.5679C15.6278 17.043 15.0828 17.2674 14.3684 17.2674C14.2997 17.2674 14.2264 17.2674 14.1577 17.263C12.7975 17.1794 11.5336 16.6691 10.5856 16.2336C7.99345 15.0281 5.71734 13.3168 3.82592 11.1479C2.26424 9.3398 1.22007 7.66805 0.528538 5.87312C0.102626 4.77768 -0.053084 3.92421 0.0156114 3.11913C0.0614084 2.60441 0.267495 2.17767 0.64761 1.81253L2.20929 0.312353C2.43369 0.109984 2.67184 0 2.9054 0C3.19392 0 3.42749 0.167175 3.57404 0.307954C3.57862 0.312353 3.5832 0.316753 3.58778 0.321152C3.86714 0.571915 4.13276 0.831476 4.41212 1.10863C4.55409 1.24941 4.70064 1.39019 4.84719 1.53537L6.09745 2.73639C6.5829 3.20272 6.5829 3.63386 6.09745 4.10019C5.96464 4.22777 5.83641 4.35535 5.7036 4.47853C5.3189 4.85687 5.6211 4.56657 5.22267 4.90972C5.21351 4.91852 5.20435 4.92292 5.19977 4.93172C4.80591 5.31006 4.87919 5.67961 4.96162 5.93037C4.9662 5.94357 4.97078 5.95676 4.97536 5.96996C5.30052 6.72665 5.75849 7.43934 6.45461 8.28841L6.45919 8.29281C7.72318 9.78859 9.05587 10.9544 10.526 11.8475C10.7137 11.9619 10.9061 12.0542 11.0893 12.1422C11.2541 12.2214 11.4098 12.2962 11.5427 12.3754C11.561 12.3842 11.5793 12.3974 11.5976 12.4062C11.7533 12.481 11.8999 12.5162 12.051 12.5162C12.4311 12.5162 12.6693 12.2874 12.7471 12.2126L13.6448 11.3503C13.8005 11.2007 14.0478 11.0203 14.3363 11.0203C14.6203 11.0203 14.8538 11.1919 14.9958 11.3415C15.0004 11.3459 15.0004 11.3459 15.005 11.3503L17.5284 13.7743C18.0001 14.2231 17.533 15.1513 17.533 15.1513Z" fill="white"/>
</svg>
