<svg width="25" height="40" viewBox="0 0 25 40" fill="none" xmlns="http://www.w3.org/2000/svg">
<path d="M1 7.25H17.6667C19.3243 7.25 20.914 7.90848 22.0861 9.08058C23.2582 10.2527 23.9167 11.8424 23.9167 13.5C23.9167 15.1576 23.2582 16.7473 22.0861 17.9194C20.914 19.0915 19.3243 19.75 17.6667 19.75M17.6667 19.75C19.3243 19.75 20.914 20.4085 22.0861 21.5806C23.2582 22.7527 23.9167 24.3424 23.9167 26C23.9167 27.6576 23.2582 29.2473 22.0861 30.4194C20.914 31.5915 19.3243 32.25 17.6667 32.25H1M17.6667 19.75H5.16666M5.16666 7.25V32.25M7.25 1V7.25M15.5833 1V7.25M7.25 32.25V38.5M15.5833 32.25V38.5" stroke="#F7931A" stroke-width="2" stroke-linecap="round" stroke-linejoin="round"/>
</svg>
